<?xml version="1.0" standalone="no"?>
<!DOCTYPE svg PUBLIC "-//W3C//DTD SVG 20010904//EN"
 "http://www.w3.org/TR/2001/REC-SVG-20010904/DTD/svg10.dtd">
<svg version="1.0" xmlns="http://www.w3.org/2000/svg"
 width="64.000000pt" height="64.000000pt" viewBox="0 0 64.000000 64.000000"
 preserveAspectRatio="xMidYMid meet">
<metadata>
Created by potrace 1.16, written by Peter Selinger 2001-2019
</metadata>
<g transform="translate(0.000000,64.000000) scale(0.008660,-0.008660)"
fill="#000000" stroke="none">
<path d="M3531 6729 c-739 -54 -1399 -348 -1923 -857 -573 -557 -900 -1290
-925 -2074 -10 -311 40 -642 148 -979 l31 -98 127 152 c69 84 202 244 296 357
93 113 257 311 364 440 107 129 220 265 250 302 l56 68 56 0 c54 0 58 -2 85
-37 15 -21 192 -236 394 -478 201 -242 405 -489 454 -548 49 -59 92 -104 96
-100 3 4 24 31 46 58 23 28 152 184 288 348 l247 297 58 0 57 0 231 -277 c127
-153 259 -313 294 -356 l64 -78 42 48 c48 56 437 524 663 798 85 104 181 220
213 257 l59 69 53 -3 54 -3 458 -550 c252 -303 496 -597 542 -653 47 -56 86
-100 87 -99 2 2 22 61 44 132 117 377 163 782 126 1120 -36 326 -125 664 -246
935 -280 629 -783 1160 -1394 1475 -361 185 -782 305 -1161 330 -186 12 -223
12 -334 4z m1314 -2104 l0 -60 -57 -3 -58 -3 0 66 0 66 58 -3 57 -3 0 -60z"/>
<path d="M1815 3448 c-104 -127 -335 -404 -512 -617 l-321 -386 21 -39 c22
-39 22 -39 87 -40 l65 -1 0 -60 c0 -58 -1 -60 -27 -63 -16 -2 -28 -5 -28 -8 0
-2 25 -44 54 -92 104 -167 288 -394 437 -537 93 -89 213 -195 222 -195 3 0 34
35 69 78 35 42 208 250 384 462 176 212 379 457 452 544 72 88 132 163 132
167 0 7 -795 968 -828 1000 -16 16 -30 1 -207 -213z"/>
<path d="M5333 3662 c-11 -18 -201 -248 -616 -746 -109 -131 -201 -244 -203
-251 -5 -11 132 -182 461 -575 35 -41 176 -211 314 -377 139 -167 256 -303
260 -303 5 0 62 49 127 108 189 172 351 358 482 554 81 120 198 325 207 359 5
20 -15 48 -111 164 -64 77 -156 187 -204 245 -450 544 -693 835 -699 838 -3 1
-11 -6 -18 -16z"/>
<path d="M3608 3143 c-35 -43 -208 -251 -384 -463 -176 -212 -398 -479 -494
-595 -95 -115 -217 -261 -269 -324 -53 -63 -171 -204 -262 -315 l-167 -201 74
-48 c462 -300 1124 -485 1658 -464 492 20 1001 173 1437 433 l128 77 -148 176
c-81 97 -257 309 -392 471 -847 1022 -1100 1325 -1109 1328 -4 2 -36 -32 -72
-75z"/>
</g>
</svg>
